<?xml version="1.0" standalone="no"?>
<!DOCTYPE svg PUBLIC "-//W3C//DTD SVG 20010904//EN"
 "http://www.w3.org/TR/2001/REC-SVG-20010904/DTD/svg10.dtd">
<svg version="1.0" xmlns="http://www.w3.org/2000/svg"
 width="254.000000pt" height="254.000000pt" viewBox="0 0 254.000000 254.000000"
 preserveAspectRatio="xMidYMid meet">
<metadata>
Created by potrace 1.11, written by Peter Selinger 2001-2013
</metadata>
<g transform="translate(0.000000,254.000000) scale(0.100000,-0.100000)"
fill="#000000" stroke="none">
<path d="M1110 2534 c-254 -40 -476 -138 -658 -292 -132 -111 -177 -178 -168
-247 13 -98 77 -156 173 -157 53 0 78 14 150 83 113 108 214 172 341 219 79
29 96 33 177 47 52 9 237 9 296 0 69 -10 176 -45 249 -81 276 -135 457 -374
516 -684 7 -35 -13 -64 -39 -56 -12 4 -145 67 -296 140 -150 74 -277 134 -281
134 -4 0 -7 -84 -6 -187 l1 -188 272 -135 c149 -74 279 -141 288 -149 21 -18
15 -41 -36 -145 -45 -93 -49 -134 -16 -196 60 -115 223 -119 294 -7 114 180
175 424 168 672 -2 77 -6 151 -9 165 -3 14 -11 50 -17 80 -45 219 -171 444
-343 615 -184 183 -390 296 -641 351 -75 16 -350 28 -415 18z"/>
<path d="M155 1767 c-57 -26 -90 -77 -113 -173 -34 -140 -39 -185 -40 -322 0
-112 13 -223 42 -343 26 -112 121 -301 210 -420 187 -248 458 -419 766 -485
89 -18 326 -26 425 -12 174 23 360 92 512 191 83 54 113 120 92 202 -27 101
-141 153 -237 108 -21 -9 -39 -20 -42 -24 -9 -12 -173 -89 -224 -105 -220 -67
-477 -48 -678 52 -192 94 -337 238 -429 423 -58 118 -80 199 -94 342 -11 107
-20 111 258 -105 77 -59 81 -61 137 -60 64 1 46 -10 264 157 79 61 80 58 81
-250 2 -288 3 -298 72 -350 31 -24 46 -28 98 -28 52 0 67 4 98 28 73 55 71 37
72 567 2 530 2 531 -66 583 -43 32 -78 41 -133 33 -36 -6 -71 -28 -197 -127
-176 -137 -169 -132 -231 -181 -25 -21 -51 -38 -57 -38 -9 0 -214 156 -345
263 -85 70 -105 80 -159 84 -30 2 -65 -2 -82 -10z"/>
</g>
</svg>
